<svg width="65" height="56" viewBox="0 0 65 56" fill="none" xmlns="http://www.w3.org/2000/svg">
<path opacity="0.16" d="M32.3232 0C14.4943 0 0 12.419 0 27.6952C0 42.9703 14.4943 55.3904 32.3232 55.3904C50.1508 55.3904 64.6465 42.9703 64.6465 27.6952C64.6465 12.419 50.1508 0 32.3232 0Z" fill="#F2DAC4"/>
<path d="M35.418 42.256V29.297H40.4954L41.255 24.2472H35.418V21.023C35.418 19.5609 35.892 18.5639 38.3392 18.5639L41.461 18.5628V14.0461C40.921 13.985 39.0678 13.8477 36.9129 13.8477C32.4132 13.8477 29.3318 16.2006 29.3318 20.5234V24.2472H24.2422V29.2981H29.3318V42.256H35.418Z" fill="#F2DAC4"/>
</svg>
