<svg width="60" height="65" viewBox="0 0 60 65" fill="none" xmlns="http://www.w3.org/2000/svg">
<path d="M32.9229 39.0246C35.6716 38.3614 37.8228 36.8651 39.563 34.7704C40.0217 34.2183 40.343 34.2176 40.9088 34.5865C46.1288 37.9904 49.2321 42.7778 50.3099 48.8921C50.5265 50.1207 50.5775 51.3711 50.6239 52.6189C50.6472 53.2441 50.4115 53.5 49.758 53.4909C47.7015 53.4622 45.6443 53.4823 43.5874 53.4823C32.9124 53.4823 22.2373 53.4823 11.5623 53.4813C10.4165 53.4812 10.3922 53.4774 10.4193 52.3215C10.5973 44.7225 13.7837 38.7646 20.1528 34.5572C21.078 33.946 21.0874 33.9623 21.7858 34.7723C23.618 36.897 25.8013 38.4832 28.5961 39.0583C30.0068 39.3486 31.4392 39.3201 32.9229 39.0246ZM34.5513 40.7637C33.124 41.1978 31.668 41.5006 30.1731 41.4002C26.7048 41.1675 23.7414 39.772 21.2941 37.3237C20.7609 36.7903 20.4281 36.8318 19.8838 37.2705C15.7351 40.6149 13.2737 44.8884 12.6617 50.2018C12.5272 51.3695 12.5256 51.3696 13.7017 51.3696C24.5842 51.3697 35.4666 51.3697 46.3491 51.3698C48.4844 51.3699 48.5551 51.3586 48.2189 49.2748C47.4258 44.3593 45.0567 40.3534 41.1039 37.2956C40.6941 36.9785 40.4312 36.9901 40.0513 37.3551C38.4951 38.8501 36.7291 40.0258 34.5513 40.7637Z" fill="#F2DAC4"/>
<path d="M30.7734 11.6723C37.0563 11.7315 42.0076 16.7088 42.1038 22.9327C42.1754 27.5655 40.5764 31.4716 36.9847 34.4114C32.7576 37.8711 27.5817 37.748 23.5626 34.0518C19.5478 30.3597 18.0653 25.7017 19.2275 20.3746C20.3876 15.0569 24.9902 11.6731 30.7734 11.6723ZM21.8673 18.8196C19.5473 23.8844 21.3825 30.4356 26.0343 33.4836C28.6051 35.168 31.3255 35.3762 34.102 33.9634C38.3183 31.8179 40.8932 26.2998 39.9613 21.4432C39.1238 17.0781 36.1711 14.2731 31.5359 13.7106C27.8854 13.2676 23.8887 14.8261 21.8673 18.8196Z" fill="#F2DAC4"/>
</svg>
