<svg width="50" height="44" viewBox="0 0 50 44" fill="none" xmlns="http://www.w3.org/2000/svg">
<path d="M0.761719 0.232452C0.341797 0.447296 0 1.02347 0 1.49222C0 1.9805 0.341797 2.53714 0.78125 2.76175C1.14258 2.9473 1.34766 2.95706 5.11719 2.95706H9.08203L9.13086 3.17191C9.25781 3.68948 14.3555 26.6875 14.3555 26.7364C14.3555 26.7559 14.1699 26.8731 13.9453 26.9903C13.7109 27.1075 13.2812 27.4492 12.9883 27.752C11.6797 29.0996 11.377 30.9551 12.1875 32.6836C12.7539 33.8946 13.9746 34.8321 15.3223 35.086C15.6152 35.1348 16.4648 35.1836 17.2266 35.1934C18.291 35.2032 18.5059 35.2227 18.1738 35.291C15.957 35.7207 14.3555 38.0059 14.7266 40.2227C15.127 42.6153 17.3633 44.2754 19.6875 43.8946C21.6016 43.5821 23.0469 42.1367 23.3594 40.2227C23.7305 38.0059 22.1289 35.7207 19.9121 35.291C19.6582 35.2422 23.5742 35.2032 29.3945 35.2032C35.2148 35.2032 39.1309 35.2422 38.877 35.291C36.6602 35.7207 35.0586 38.0059 35.4297 40.2227C35.7422 42.1367 37.1875 43.5821 39.1016 43.8946C41.4258 44.2754 43.6621 42.6153 44.0625 40.2227C44.4336 38.0059 42.832 35.7207 40.6152 35.291C40.2832 35.2227 40.5078 35.2032 41.582 35.1934C42.7734 35.1836 43.0371 35.1543 43.3594 34.9883C43.7988 34.7637 44.1406 34.2071 44.1406 33.7188C44.1406 33.2305 43.7988 32.6739 43.3594 32.4492C42.9785 32.2539 42.8125 32.2539 29.3945 32.2539C15.9766 32.2539 15.8105 32.2539 15.4297 32.0586C14.9902 31.834 14.6484 31.2774 14.6484 30.7891C14.6484 30.3496 14.9902 29.7442 15.3613 29.5489C15.6543 29.3828 16.5039 29.3731 29.4141 29.3242C43.0957 29.2754 43.1543 29.2754 43.418 29.0703C43.5645 28.9629 43.7695 28.7676 43.8672 28.6309C44.0625 28.377 50 7.71292 50 7.30276C50 6.86331 49.6387 6.29691 49.2188 6.08206C48.8379 5.88675 48.6816 5.88675 30.7812 5.88675H12.7246L12.1973 3.47464C11.8164 1.72659 11.6016 0.964874 11.4258 0.701202C10.9961 0.0273743 11.0254 0.0273743 5.78125 0.0273743C1.33789 0.0371399 1.10352 0.0469055 0.761719 0.232452ZM46.543 8.98245C46.5137 9.08011 45.3906 13.0352 44.0332 17.7715L41.5723 26.3946H29.4336H17.2852L17.2363 26.17C17.207 26.0528 16.3477 22.1953 15.332 17.6055C14.3164 13.0157 13.457 9.15823 13.4277 9.03128L13.3789 8.81644H29.9805C45.7617 8.81644 46.5918 8.8262 46.543 8.98245ZM19.7266 38.3086C20.166 38.5332 20.5078 39.0899 20.5078 39.5782C20.5078 40.3203 19.7852 41.043 19.043 41.043C18.3008 41.043 17.5781 40.3203 17.5781 39.5782C17.5781 39.1094 17.9199 38.5332 18.3398 38.3184C18.8086 38.0645 19.248 38.0645 19.7266 38.3086ZM40.4297 38.3086C40.8691 38.5332 41.2109 39.0899 41.2109 39.5782C41.2109 40.3203 40.4883 41.043 39.7461 41.043C39.0039 41.043 38.2812 40.3203 38.2812 39.5782C38.2812 39.1094 38.623 38.5332 39.043 38.3184C39.5117 38.0645 39.9512 38.0645 40.4297 38.3086Z" fill="#F2DAC4"/>
</svg>
