<svg width="40" height="40" viewBox="0 0 40 40" fill="none" xmlns="http://www.w3.org/2000/svg">
<path d="M35.6311 31.3688C34.6554 30.4341 33.7057 29.4727 32.7832 28.4854C32.0082 27.6979 31.5415 27.125 31.5415 27.125L25.7082 24.3396C28.0436 21.6909 29.3325 18.2812 29.3332 14.75C29.3332 6.71044 22.7915 0.166687 14.7498 0.166687C6.70817 0.166687 0.166504 6.71044 0.166504 14.75C0.166504 22.7896 6.70817 29.3334 14.7498 29.3334C18.4228 29.3334 21.7707 27.9584 24.3394 25.7104L27.1248 31.5438C27.1248 31.5438 27.6978 32.0104 28.4853 32.7854C29.2915 33.5417 30.3519 34.5646 31.3686 35.6334L34.1978 38.5334L35.4561 39.8792L39.8748 35.4604L38.529 34.2021C37.7394 33.4271 36.6853 32.3979 35.6311 31.3688ZM14.7498 25.1667C9.00609 25.1667 4.33317 20.4938 4.33317 14.75C4.33317 9.00627 9.00609 4.33335 14.7498 4.33335C20.4936 4.33335 25.1665 9.00627 25.1665 14.75C25.1665 20.4938 20.4936 25.1667 14.7498 25.1667Z" fill="#F2DAC4"/>
</svg>
