<svg width="130" height="46" viewBox="0 0 130 46" fill="none" xmlns="http://www.w3.org/2000/svg">
<g clip-path="url(#clip0_138_66)">
<path d="M88.3662 45.8823C59.9021 45.8823 31.8627 45.84 3.82397 45.9542C1.28855 45.9645 0.744194 45.4472 0.775149 42.9076C0.935649 29.7396 0.9061 16.5681 0.792874 3.39918C0.77459 1.27256 1.27497 0.79184 3.39891 0.795554C45.0328 0.868325 86.6668 0.868321 128.301 0.795561C130.424 0.79185 130.925 1.27245 130.907 3.39912C130.794 16.7097 130.794 30.0222 130.907 43.3328C130.925 45.4593 130.427 45.9576 128.3 45.9393C115.131 45.826 101.961 45.8823 88.3662 45.8823Z" fill="#0F2626"/>
<path d="M90.0668 34.0466C84.6985 33.0512 83.5446 31.7306 83.4694 26.7513C83.4269 23.9336 83.478 21.1146 83.465 18.2963C83.4593 17.076 84.0479 16.4869 85.2473 16.4638C86.5444 16.4388 86.9201 17.1768 86.9101 18.3488C86.8849 21.3079 86.8992 24.2674 86.9145 27.2267C86.9257 29.3967 87.457 31.2784 90.0994 31.2793C92.8336 31.2802 93.1345 29.2051 93.1841 27.1437C93.252 24.3269 93.2279 21.5071 93.2014 18.689C93.1895 17.4273 93.3845 16.4407 94.9756 16.4599C96.5374 16.4787 96.7697 17.4422 96.7547 18.7122C96.7231 21.3893 96.7171 24.0674 96.7519 26.7444C96.8083 31.0775 94.9873 33.7466 90.0668 34.0466Z" fill="#F2DAC4"/>
<path d="M113.977 32.5905C113.016 30.2452 114.008 29.8472 115.764 30.5668C116.969 31.0607 118.152 31.4172 119.453 31.322C120.701 31.2308 121.641 30.6484 121.994 29.4319C122.389 28.0767 121.505 27.2819 120.449 26.7745C119.309 26.2271 118.059 25.913 116.903 25.3947C114.67 24.3931 113.048 22.8746 113.533 20.1737C114.005 17.5459 115.985 16.4835 118.394 16.1869C119.493 16.0516 120.695 16.0768 121.744 16.3881C122.953 16.7472 125.07 16.7868 124.519 18.7338C123.978 20.6467 122.458 19.1866 121.338 18.9831C119.8 18.7037 117.921 18.2597 117.347 20.1867C116.716 22.3061 118.765 22.5425 120.17 23.0927C121.088 23.4525 122.02 23.7959 122.898 24.2404C124.827 25.2165 125.934 26.731 125.771 28.9898C125.598 31.4063 124.208 32.8748 122.007 33.5895C119.314 34.4635 116.704 34.1448 113.977 32.5905Z" fill="#F2DAC4"/>
<path d="M106.039 26.5372C105.326 26.2851 104.915 26.1784 104.525 26.0201C100.081 24.2167 98.5748 21.8693 99.9991 18.9855C101.385 16.1801 106.222 15.098 109.369 16.8897C110.094 17.3028 110.995 17.6705 110.644 18.7384C110.302 19.7793 109.455 19.7262 108.568 19.4518C107.767 19.2042 106.96 18.9182 106.135 18.8236C104.961 18.6889 103.795 18.8903 103.405 20.229C102.99 21.6571 104.078 22.2568 105.117 22.7226C106.141 23.1817 107.253 23.4422 108.285 23.8848C110.54 24.8513 112.044 26.4011 111.817 29.052C111.578 31.8612 109.769 33.264 107.21 33.8355C104.937 34.3432 102.719 34.0744 100.644 32.9806C99.911 32.5942 99.0304 32.158 99.5343 31.0806C99.9521 30.1874 100.66 29.9928 101.617 30.4106C102.508 30.7991 103.456 31.1415 104.41 31.2799C105.695 31.4662 107.029 31.335 107.753 30.0394C108.669 28.3989 107.727 27.4107 106.039 26.5372Z" fill="#F2DAC4"/>
<path d="M72.8946 27.0473C72.3513 29.0091 71.8474 30.6211 71.4431 32.2578C71.0716 33.7619 69.9532 33.8333 68.8082 33.644C67.2514 33.3865 67.769 32.2048 68.0369 31.3277C69.35 27.0283 70.7799 22.7639 72.0516 18.4526C72.486 16.98 73.2694 16.3961 74.7621 16.4051C76.2593 16.4142 77.0339 17.0328 77.4492 18.4938C78.6421 22.6903 79.9735 26.8472 81.2137 31.0306C81.5164 32.0517 82.2061 33.3442 80.3668 33.6398C79.0625 33.8494 78.2843 33.1959 77.9507 31.8756C77.105 28.5294 76.188 25.2012 75.1467 21.2918C73.5216 23.2056 73.4813 25.0548 72.8946 27.0473Z" fill="#F2DAC4"/>
<path d="M62.3543 26.4211C63.1198 23.653 63.8844 21.2239 64.3874 18.7418C64.7317 17.0425 65.501 16.04 67.2174 16.5662C68.8929 17.08 67.9629 18.442 67.6801 19.4006C66.5241 23.319 65.2349 27.1981 64.0799 31.1168C63.6575 32.55 63.3199 33.7671 61.3993 33.731C59.6903 33.6988 58.9268 32.9873 58.465 31.3689C57.3037 27.2992 55.9287 23.2909 54.7044 19.2384C54.4106 18.266 53.5829 16.9479 55.4029 16.5343C56.8981 16.1945 57.7289 16.8729 58.0969 18.4235C58.813 21.4409 59.6752 24.4244 60.5178 27.4104C60.6753 27.9688 60.7903 28.9658 61.734 28.3083C62.0935 28.0578 62.0835 27.2768 62.3543 26.4211Z" fill="#F2DAC4"/>
<path d="M13.9862 28.243C12.4709 25.9883 11.2739 23.9414 9.99658 21.6026C13.8157 18.8501 17.2416 20.984 21.0531 22.6595C21.985 23.4404 22.6024 23.988 23.4707 24.5689C27.0653 23.2685 30.2057 23.6751 33.3113 26.0653C32.7842 27.7308 32.1021 29.036 31.2304 30.541C29.15 32.0076 27.24 31.7188 25.1006 31.2607C21.4529 30.4797 17.7997 29.7928 13.9862 28.243Z" fill="#F2DAC4"/>
<path d="M38.4726 30.0017C37.1799 28.3769 36.2409 26.8164 35.0795 25.0381C34.7009 24.6645 34.5448 24.5087 34.2737 24.0408C33.9615 22.492 34.8104 21.6318 35.4696 20.3477C36.356 19.415 37.1531 18.9265 38.3361 18.409C39.9109 18.2076 41.086 18.307 42.3606 19.3736C43.9649 21.9417 45.2939 24.2755 46.6839 26.8988C45.0547 30.7592 42.1276 30.9274 38.4726 30.0017Z" fill="#F2DAC4"/>
<path d="M38.1538 30.2031C40.5212 28.2193 43.5859 28.6331 46.4486 27.3153C47.8278 27.9019 47.6399 29.186 48.2679 30.3997C48.0054 34.2871 45.1426 35.3798 40.0402 33.4705C39.1875 32.3241 38.6883 31.3964 38.1538 30.2031Z" fill="#F2DAC4"/>
<path d="M39.769 33.5145C42.5657 32.7389 45.604 32.8853 48.3217 30.9038C50.0618 31.6621 50.4825 33.3075 50.6209 35.353C48.1504 38.4196 45.3755 39.0607 41.8358 36.8241C40.9614 35.6535 40.4063 34.7153 39.769 33.5145Z" fill="#F2DAC4"/>
<path d="M29.4911 32.7937C29.3126 33.8964 28.9514 34.6674 28.383 35.5934C24.2212 36.5097 20.6056 35.6163 16.8987 33.3834C16.1083 32.5497 15.6581 31.8406 15.1724 30.879C15.7081 29.6872 16.6236 29.1774 17.6241 29.4354C21.5197 30.44 25.6872 30.4083 29.4911 32.7937Z" fill="#F2DAC4"/>
<path d="M29.8705 32.9277C25.1143 32.0971 20.648 30.5582 15.5141 30.6175C14.6714 29.9311 14.206 29.2359 13.7041 28.2879C19.374 27.8071 24.6109 30.5299 30.6492 30.7073C30.7159 31.4039 30.3915 32.067 29.8705 32.9277Z" fill="#F2DAC4"/>
<path d="M41.5688 36.8929C44.3115 36.2835 47.1063 35.9755 50.233 35.6536C50.9108 38.3451 49.3614 39.8944 47.0694 40.503C44.3259 41.2315 42.6783 39.5565 41.5688 36.8929Z" fill="#F2DAC4"/>
<path d="M7.50439 12.9569C10.5009 7.95348 13.4054 8.33711 16.5843 14.018C13.3053 17.0086 10.3861 15.3176 7.50439 12.9569Z" fill="#F2DAC4"/>
<path d="M21.3343 22.6298C17.7972 22.3573 14.2272 21.8219 10.2866 21.2986C9.45375 20.6075 8.99151 19.9043 8.49707 18.9461C11.9656 15.9445 15.2151 18.3152 18.9458 19.269C20.0026 20.3573 20.652 21.3621 21.3343 22.6298Z" fill="#F2DAC4"/>
<path d="M42.5839 19.3497C41.4304 19.6166 40.2249 19.6253 38.6597 19.6396C34.7758 19.9732 31.3396 19.8616 28.1909 17.323C28.2409 16.5413 28.4227 16.0875 28.7969 15.4755C33.1133 13.1557 36.7623 15.3405 40.8709 16.7215C41.6619 17.6076 42.0969 18.3496 42.5839 19.3497Z" fill="#F2DAC4"/>
<path d="M41.141 16.5834C37.2436 17.3502 33.5624 15.5825 29.3344 15.3174C29.3049 14.5295 29.6206 13.7417 30.147 12.8053C33.2616 10.8554 35.9428 11.7889 38.9119 13.3213C39.8511 14.3111 40.4531 15.3061 41.141 16.5834Z" fill="#F2DAC4"/>
<path d="M16.6289 33.5314C20.4161 33.0695 23.9416 34.5236 27.8719 35.6142C27.9984 36.2011 27.8207 36.6539 27.4545 37.2668C24.4425 39.8839 21.7523 38.9328 18.7682 36.8665C17.8598 35.685 17.2793 34.7446 16.6289 33.5314Z" fill="#F2DAC4"/>
<path d="M34.6355 23.5039C34.8353 24.0206 34.8433 24.2491 34.8548 24.6489C34.5255 25.2367 34.1942 25.6531 33.6644 26.2476C30.4501 25.8377 27.4342 25.2498 24.0698 24.632C24.328 23.4358 24.9346 22.2694 25.7479 20.9108C28.7633 21.62 31.9942 21.0869 34.6355 23.5039Z" fill="#F2DAC4"/>
<path d="M19.3034 19.0748C15.9081 20.145 12.6237 18.46 8.83988 18.6924C8.0545 18.015 7.64397 17.3387 7.17383 16.3675C10.6251 13.6086 13.9609 15.7401 17.6969 16.6912C18.4467 17.5456 18.85 18.1714 19.3034 19.0748Z" fill="#F2DAC4"/>
<path d="M39.1058 13.0617C36.4163 14.6921 33.7598 13.2558 30.6997 12.7293C33.3956 8.10301 36.1662 8.15144 39.1058 13.0617Z" fill="#F2DAC4"/>
<path d="M18.5 36.9314C21.2083 36.1463 23.7969 37.53 26.8983 37.4169C24.3888 42.0828 21.724 42.0247 18.5 36.9314Z" fill="#F2DAC4"/>
<path d="M34.96 23.5708C32.0405 22.8563 28.6972 23.8201 26.1603 21.0188C26.1036 20.359 26.253 19.9997 26.549 19.5079C30.0569 18.0002 33.0621 19.2959 36.2953 20.9249C36.0488 21.934 35.57 22.6418 34.96 23.5708Z" fill="#F2DAC4"/>
<path d="M36.6843 21.0461C33.3691 21.3107 30.5013 19.8874 27.0674 19.4241C27.0055 18.7001 27.315 18.0248 27.8417 17.1722C31.2753 17.7776 34.4917 18.5602 38.004 19.4939C37.8135 20.0521 37.3271 20.459 36.6843 21.0461Z" fill="#F2DAC4"/>
<path d="M18.0093 16.6703C14.6773 16.6489 11.3112 16.378 7.52964 16.0897C6.65904 15.0196 6.73318 13.9724 7.33268 12.7281C10.085 14.1433 12.9662 14.3341 16.2763 14.3453C17.1056 15.022 17.5405 15.7214 18.0093 16.6703Z" fill="#F2DAC4"/>
</g>
<defs>
<clipPath id="clip0_138_66">
<rect width="130" height="45.0327" fill="white"/>
</clipPath>
</defs>
</svg>
