<svg width="66" height="56" viewBox="0 0 66 56" fill="none" xmlns="http://www.w3.org/2000/svg">
<path opacity="0.16" d="M33.1079 0C15.2655 0 0.784668 12.4075 0.784668 27.6952C0.784668 42.983 15.2655 55.3904 33.1079 55.3904C50.9503 55.3904 65.4311 42.983 65.4311 27.6952C65.4311 12.4075 50.9503 0 33.1079 0Z" fill="#F2DAC4"/>
<path d="M27.3072 27.1633C27.3072 24.7123 29.6264 22.724 32.487 22.724C35.3476 22.724 37.6682 24.7123 37.6682 27.1633C37.6682 29.6143 35.3476 31.6026 32.487 31.6026C29.6264 31.6026 27.3072 29.6143 27.3072 27.1633ZM24.5072 27.1633C24.5072 30.9391 28.079 34.0005 32.487 34.0005C36.8938 34.0005 40.4668 30.9391 40.4668 27.1633C40.4668 23.3863 36.8938 20.326 32.487 20.326C28.079 20.326 24.5072 23.3863 24.5072 27.1633ZM38.918 20.0548C38.918 20.371 39.0271 20.6792 39.2318 20.9423C39.4365 21.2054 39.7274 21.4108 40.0682 21.5319C40.4089 21.6519 40.7847 21.6843 41.1456 21.6231C41.5079 21.5608 41.8406 21.4096 42.1005 21.1857C42.3618 20.9619 42.5396 20.678 42.6123 20.3676C42.6837 20.0583 42.6473 19.7364 42.5059 19.4444C42.3645 19.1524 42.1261 18.9032 41.819 18.7266C41.5133 18.5512 41.1524 18.4577 40.7833 18.4577C40.2877 18.4577 39.8136 18.6262 39.4648 18.9251C39.1146 19.2251 38.918 19.6313 38.918 20.0548ZM26.2082 38.0013C24.6931 37.9425 23.8702 37.7267 23.322 37.5432C22.5975 37.302 22.0789 37.0135 21.5348 36.5473C20.9907 36.0823 20.654 35.6392 20.3726 35.0172C20.1598 34.5487 19.9066 33.8424 19.8379 32.5442C19.7625 31.141 19.7476 30.7187 19.7476 27.1633C19.7476 23.6079 19.7638 23.1867 19.8379 21.7823C19.9066 20.4841 20.1611 19.779 20.3726 19.3094C20.6554 18.6874 20.9921 18.2443 21.5348 17.7781C22.0789 17.3119 22.5961 17.0234 23.322 16.7822C23.8702 16.5987 24.6931 16.3829 26.2082 16.3241C27.846 16.2594 28.3389 16.2468 32.487 16.2468C36.6352 16.2468 37.1281 16.2606 38.7672 16.3241C40.2823 16.3829 41.1039 16.601 41.6534 16.7822C42.3793 17.0234 42.8965 17.3119 43.4406 17.7781C43.9847 18.2431 44.32 18.6874 44.6029 19.3094C44.817 19.7779 45.0689 20.4841 45.1375 21.7823C45.213 23.1867 45.2278 23.6079 45.2278 27.1633C45.2278 30.7187 45.213 31.1398 45.1375 32.5442C45.0689 33.8424 44.8157 34.5487 44.6029 35.0172C44.32 35.6392 43.9847 36.0823 43.4406 36.5473C42.8978 37.0124 42.3793 37.302 41.6534 37.5432C41.1066 37.7267 40.2823 37.9425 38.7672 38.0013C37.1294 38.066 36.6365 38.0786 32.487 38.0786C28.3362 38.0786 27.846 38.066 26.2082 38.0013ZM26.0803 13.9284C24.4251 13.9931 23.2951 14.2181 22.3079 14.5469C21.2857 14.8862 20.4197 15.3432 19.555 16.0829C18.6904 16.8226 18.1584 17.5657 17.7625 18.4416C17.3786 19.2874 17.116 20.2556 17.0406 21.6739C16.9638 23.0933 16.9463 23.5468 16.9463 27.1633C16.9463 30.7798 16.9638 31.2333 17.0406 32.6527C17.116 34.0709 17.3786 35.0391 17.7625 35.8849C18.1584 36.7608 18.6904 37.504 19.555 38.2437C20.4197 38.9834 21.2857 39.4392 22.3079 39.7796C23.2965 40.1085 24.4251 40.3335 26.0803 40.3981C27.7382 40.4627 28.2662 40.4789 32.487 40.4789C36.7079 40.4789 37.2372 40.4639 38.8938 40.3981C40.549 40.3335 41.6789 40.1085 42.6662 39.7796C43.6884 39.4392 44.5544 38.9834 45.419 38.2437C46.2837 37.504 46.8143 36.7608 47.2116 35.8849C47.5954 35.0391 47.8594 34.0709 47.9335 32.6527C48.0089 31.2322 48.0264 30.7798 48.0264 27.1633C48.0264 23.5468 48.0089 23.0933 47.9335 21.6739C47.8581 20.2556 47.5954 19.2874 47.2116 18.4416C46.8143 17.5657 46.2823 16.8238 45.419 16.0829C44.5557 15.3421 43.6884 14.8862 42.6675 14.5469C41.679 14.2181 40.549 13.9919 38.8951 13.9284C37.2385 13.8638 36.7079 13.8477 32.4884 13.8477C28.2675 13.8477 27.7382 13.8627 26.0803 13.9284Z" fill="#F2DAC4"/>
</svg>
