<svg width="40" height="40" viewBox="0 0 40 40" fill="none" xmlns="http://www.w3.org/2000/svg">
<path d="M18.3516 0.117184C13.6719 0.757809 9.67194 3.99218 8.13288 8.38281C7.75788 9.45312 7.57819 10.4531 7.53132 11.7578C7.39069 15.375 8.60944 18.5234 11.9454 23.125C13.7969 25.6719 15.3204 27.8203 17.2344 30.5703C18.9298 33 19.2188 33.3828 19.5001 33.5156C19.8985 33.7109 20.1016 33.7109 20.5001 33.5156C20.7813 33.3828 21.0704 33 22.7657 30.5703C24.6563 27.8594 26.1172 25.7891 28.0547 23.125C30.6251 19.5703 31.7501 17.2734 32.3204 14.4141C32.5313 13.3437 32.5079 10.9375 32.2813 9.86719C31.9454 8.3125 31.2891 6.78906 30.3751 5.44531C29.7266 4.5 28.1485 2.91406 27.2266 2.28906C24.5079 0.460934 21.4141 -0.296879 18.3516 0.117184ZM21.4688 2.46875C23.6719 2.79687 25.6954 3.8125 27.2657 5.39062C28.5313 6.66406 29.4141 8.1875 29.8594 9.90625C30.086 10.7578 30.1016 10.9141 30.1016 12.1875C30.1094 13.3125 30.0782 13.6953 29.9376 14.3516C29.4063 16.7969 28.3282 18.8047 25.3594 22.8516C24.7266 23.7109 23.2735 25.7578 22.1251 27.3984C20.9766 29.0469 20.0235 30.3906 20.0001 30.3906C19.9766 30.3906 19.0235 29.0469 17.8751 27.3984C16.7266 25.7578 15.2735 23.7109 14.6407 22.8516C11.7032 18.8594 10.5079 16.6016 10.0313 14.1797C9.836 13.1875 9.836 11.2109 10.0313 10.3125C10.7969 6.76562 13.4298 3.9375 16.9923 2.82031C18.461 2.35937 19.9532 2.24218 21.4688 2.46875Z" fill="#F2DAC4"/>
<path d="M19.1797 6.10153C18.4141 6.20309 17.875 6.36716 17.1484 6.71872C15.7969 7.37497 14.8047 8.37497 14.1406 9.72653C13.6016 10.8359 13.4844 11.375 13.4844 12.6562C13.4922 13.5703 13.5234 13.8047 13.7031 14.3984C14.0469 15.5547 14.4531 16.2422 15.3047 17.1406C16.625 18.5234 18.3672 19.2109 20.3047 19.1172C22.0781 19.0312 23.4922 18.3984 24.6953 17.1406C25.5469 16.25 25.9531 15.5547 26.2969 14.3984C26.4766 13.8047 26.5078 13.5703 26.5156 12.6562C26.5156 11.414 26.3984 10.8672 25.9062 9.80466C25.1875 8.28903 23.9062 7.09372 22.3516 6.49216C21.3828 6.11716 20.1641 5.96872 19.1797 6.10153ZM21.25 8.59372C22.9297 9.07809 24.2188 10.8437 24.2188 12.6562C24.2188 12.8593 24.1484 13.2968 24.0625 13.625C23.5859 15.5 21.9297 16.7968 20.0156 16.7968C16.3828 16.7968 14.4453 12.4765 16.8828 9.81247C18.0391 8.54684 19.5859 8.11716 21.25 8.59372Z" fill="#F2DAC4"/>
<path d="M12.4453 28.9844C12.3515 29.0234 11.4609 29.5703 10.4687 30.2031C9.22654 30.9922 8.60936 31.4297 8.50779 31.5938C8.29686 31.9375 8.31248 32.4844 8.53904 32.8203C8.67186 33.0156 9.92967 33.8516 13.4375 36.0781C19.5078 39.9141 19.6484 40 19.9765 40C20.125 40 20.4062 39.9141 20.6094 39.8047C20.8125 39.7031 23.2969 38.1484 26.1328 36.3516C29.9844 33.9141 31.3281 33.0156 31.4609 32.8203C31.5781 32.6406 31.6406 32.4375 31.6406 32.2109C31.6406 31.5234 31.5781 31.4766 28.9297 29.8125C27.4062 28.8594 27.1953 28.7891 26.6484 29.0781C26.2422 29.2891 26.0156 29.6563 26.0156 30.125C26.0156 30.6172 26.2656 30.8984 27.25 31.5313C27.7422 31.8359 28.164 32.1172 28.2031 32.1563C28.2578 32.2188 27.164 32.9297 21.039 36.7891L20 37.4375L15.8672 34.8359C13.5703 33.3828 11.7656 32.1953 11.7969 32.1563C11.8359 32.1172 12.2578 31.8359 12.75 31.5313C13.7344 30.8984 13.9844 30.6172 13.9844 30.125C13.9844 29.6563 13.7578 29.2891 13.3594 29.0781C13 28.8984 12.7344 28.8672 12.4453 28.9844Z" fill="#F2DAC4"/>
</svg>
