<svg width="27" height="45" viewBox="0 0 27 45" fill="none" xmlns="http://www.w3.org/2000/svg">
<path d="M3.1025 0.0878944C1.85446 0.404301 0.861293 1.52051 0.70309 2.77735C0.641567 3.30469 0.782192 4.1045 1.03707 4.61426C1.15133 4.84277 4.27145 8.02441 9.96676 13.7285L18.7295 22.5L9.96676 31.2627C4.27145 36.9756 1.15133 40.1572 1.03707 40.3857C0.228481 42.0205 0.905239 43.9453 2.55758 44.71C3.00582 44.9121 3.19918 44.9561 3.832 44.9473C5.23825 44.9473 4.28903 45.791 15.6269 34.4707C22.4648 27.6416 25.7783 24.2754 25.9277 24.0029C26.2705 23.3613 26.3935 22.6143 26.2529 21.9463C26.1914 21.6475 26.042 21.2168 25.9277 20.9971C25.7783 20.7246 22.4648 17.3584 15.6269 10.5293C6.6445 1.56446 5.49313 0.448246 5.08004 0.272465C4.54391 0.0527382 3.60348 -0.0351524 3.1025 0.0878944Z" fill="#F2DAC4"/>
</svg>
