<svg width="20" height="19" viewBox="0 0 20 19" fill="none" xmlns="http://www.w3.org/2000/svg">
<path d="M2.2484 0.182543C1.77532 0.414934 0.895547 1.4524 0.530359 2.21597C-0.191715 3.70992 -0.175116 5.60225 0.571858 7.34519C1.48483 9.49482 3.88344 12.5491 6.24886 14.5742C7.9088 15.9935 9.29486 16.8318 11.3283 17.6285C13.4115 18.4419 13.8099 18.5332 15.1876 18.5332C16.2749 18.5332 16.4492 18.5166 16.9472 18.3257C17.7772 18.0103 18.3996 17.6202 19.0138 17.0144C19.4952 16.5413 19.5948 16.3919 19.7525 15.8939C19.9434 15.2631 20.0596 14.2589 19.9683 13.9103C19.9268 13.7277 19.6861 13.5783 18.5075 12.989C16.3496 11.91 15.4781 11.5365 15.113 11.5365C14.8059 11.5365 14.7561 11.5697 14.3909 12.0511C13.5526 13.155 12.7807 14.0099 12.5815 14.0597C12.3408 14.1178 11.8678 13.9435 10.7805 13.3957C9.01266 12.5159 7.57681 11.3291 6.34016 9.74381C5.66788 8.88064 5.062 7.90127 5.062 7.66888C5.062 7.57759 5.37739 7.0879 5.75918 6.58992C6.50615 5.61885 6.72194 5.25367 6.72194 4.97978C6.72194 4.88848 6.55595 4.43199 6.36506 3.95891C6.16586 3.49413 5.76748 2.53136 5.47699 1.82589C5.1118 0.946115 4.86281 0.456434 4.68022 0.265541L4.41462 -5.14984e-05H3.51826C2.76298 -5.14984e-05 2.55549 0.0331478 2.2484 0.182543Z" fill="#F2DAC4"/>
</svg>
