<svg width="66" height="56" viewBox="0 0 66 56" fill="none" xmlns="http://www.w3.org/2000/svg">
<path opacity="0.16" d="M32.8921 0C15.0631 0 0.568848 12.419 0.568848 27.6952C0.568848 42.9703 15.0631 55.3904 32.8921 55.3904C50.7197 55.3904 65.2153 42.9703 65.2153 27.6952C65.2153 12.419 50.7197 0 32.8921 0Z" fill="#F2DAC4"/>
<path d="M44.7667 22.4688C44.7667 22.7019 44.7667 22.935 44.7667 23.1347C44.7667 30.025 38.6293 37.9804 27.4401 37.9804C23.9829 37.9804 20.7963 37.115 18.0771 35.6506C18.5431 35.6841 19.0482 35.7175 19.5142 35.7175C22.3506 35.7175 24.993 34.8855 27.0899 33.4869C24.4098 33.4534 22.1566 31.9221 21.4186 29.8588C21.8064 29.9258 22.1566 29.9592 22.5835 29.9592C23.1276 29.9592 23.6718 29.8923 24.1768 29.7584C21.3795 29.2934 19.2812 27.1955 19.2812 24.666C19.2812 24.6325 19.2812 24.6325 19.2812 24.5991C20.0973 24.9983 21.0293 25.2314 22.0394 25.2649C20.4085 24.3336 19.3203 22.7354 19.3203 20.9041C19.3203 19.9393 19.6314 19.0404 20.1364 18.2753C23.1277 21.4372 27.634 23.5005 32.6845 23.7336C32.5687 23.3678 32.5297 22.935 32.5297 22.5358C32.5297 19.6393 35.2489 17.3094 38.6293 17.3094C40.3775 17.3094 41.9694 17.9418 43.0576 18.94C44.457 18.708 45.7378 18.2753 46.9431 17.6753C46.4771 18.9077 45.5048 19.9059 44.2617 20.5717C45.5048 20.439 46.6711 20.1724 47.7579 19.7397C46.9822 20.8048 45.9721 21.7372 44.7667 22.4688Z" fill="#F2DAC4"/>
</svg>
