<svg width="33" height="33" viewBox="0 0 33 33" fill="none" xmlns="http://www.w3.org/2000/svg">
<path d="M14.6541 0.196259C7.12771 1.12595 1.20779 7.16892 0.428493 14.7158C0.312282 15.83 0.380642 17.9492 0.572048 19.0224C0.865993 20.7109 1.35818 22.2011 2.12381 23.7256L2.50662 24.4912L1.36502 28.6679C0.736111 30.9716 0.230251 32.8584 0.243923 32.8652C0.257595 32.8789 2.17166 32.3799 4.50271 31.7646C7.89334 30.8691 8.77517 30.6572 8.91189 30.7119C9.0076 30.7461 9.45193 30.9443 9.9031 31.1494C11.366 31.8125 12.9041 32.25 14.5242 32.4687C15.6521 32.6191 17.6277 32.6191 18.7215 32.4687C22.3172 31.9629 25.5232 30.3769 28.0525 27.8476C29.3787 26.5283 30.2605 25.3183 31.0945 23.6709C31.8465 22.1875 32.3797 20.5674 32.6805 18.8584C32.8513 17.8603 32.8513 14.914 32.6805 13.8681C32.3865 12.0976 31.9285 10.6826 31.156 9.11716C28.948 4.66696 24.8738 1.49509 19.9998 0.435517C18.4822 0.107392 16.2195 0.00485325 14.6541 0.196259ZM18.9265 3.02634C20.8885 3.38864 22.5154 4.04489 24.1219 5.11813C26.8699 6.957 28.8865 9.80759 29.6863 12.9658C30.2742 15.29 30.2263 17.9287 29.5633 20.164C28.4832 23.7734 25.9197 26.8154 22.5564 28.456C20.6013 29.4131 18.7967 29.83 16.6023 29.83C14.0867 29.83 11.865 29.2216 9.58865 27.9091L9.20584 27.6904L6.69021 28.3535C5.30935 28.7158 4.16092 29.0029 4.15408 28.9892C4.14041 28.9756 4.42068 27.8955 4.78299 26.583C5.13846 25.2705 5.43924 24.1494 5.43924 24.0947C5.44607 24.0332 5.26834 23.6914 5.04959 23.3359C1.82302 18.0859 2.67068 11.1679 7.06619 6.79294C9.25369 4.61911 12.0291 3.27927 15.1326 2.89645C15.9734 2.79392 18.0652 2.86911 18.9265 3.02634Z" fill="#F2DAC4"/>
<path d="M10.2176 8.99414C9.82794 9.18555 9.10333 10.04 8.80255 10.6689C8.20782 11.8994 8.22149 13.458 8.83673 14.8936C9.58868 16.6641 11.5643 19.1797 13.5125 20.8477C14.8797 22.0166 16.0213 22.707 17.6961 23.3633C19.4119 24.0332 19.74 24.1084 20.8748 24.1084C21.7703 24.1084 21.9139 24.0947 22.324 23.9375C23.0076 23.6777 23.5203 23.3564 24.0262 22.8574C24.4227 22.4678 24.5047 22.3447 24.6346 21.9346C24.7918 21.415 24.8875 20.5879 24.8123 20.3008C24.7781 20.1504 24.5799 20.0273 23.6092 19.542C21.8318 18.6533 21.1141 18.3457 20.8133 18.3457C20.5604 18.3457 20.5193 18.373 20.2186 18.7695C19.5281 19.6787 18.8924 20.3828 18.7283 20.4238C18.5301 20.4717 18.1404 20.3281 17.2449 19.877C15.7889 19.1523 14.6063 18.1748 13.5877 16.8691C13.034 16.1582 12.535 15.3516 12.535 15.1602C12.535 15.085 12.7947 14.6816 13.1092 14.2715C13.7244 13.4717 13.9022 13.1709 13.9022 12.9453C13.9022 12.8701 13.7654 12.4941 13.6082 12.1045C13.4441 11.7217 13.116 10.9287 12.8768 10.3477C12.576 9.62305 12.3709 9.21973 12.2205 9.0625L12.0018 8.84375H11.2635C10.6414 8.84375 10.4705 8.87109 10.2176 8.99414Z" fill="#F2DAC4"/>
</svg>
