<svg width="65" height="56" viewBox="0 0 65 56" fill="none" xmlns="http://www.w3.org/2000/svg">
<path opacity="0.16" d="M32.6767 0C14.8478 0 0.353516 12.419 0.353516 27.6952C0.353516 42.9703 14.8478 55.3904 32.6767 55.3904C50.5044 55.3904 65 42.9703 65 27.6952C65 12.419 50.5044 0 32.6767 0Z" fill="#F2DAC4"/>
<path d="M24.8275 13.7189C20.5785 14.0509 15.4442 15.0689 14.3155 15.8213C13.3639 16.441 12.9656 18.3664 13.541 19.4729C13.8729 20.0704 15.068 20.7786 15.754 20.7786C16.0638 20.7786 17.3032 20.5351 18.4982 20.2253C19.6933 19.9376 21.6407 19.5614 22.8137 19.4065C25.5357 19.0524 33.6134 19.0524 36.269 19.4065C41.691 20.1368 46.4269 21.4868 50.2777 23.4342C51.517 24.0318 52.8005 24.5408 53.1768 24.5408C55.3234 24.5408 56.6291 21.7966 55.257 20.1589C54.239 18.9417 49.1269 16.6402 45.0549 15.5558C38.6591 13.8517 31.4446 13.1878 24.8275 13.7189Z" fill="#F2DAC4"/>
<path d="M23.4996 24.231C20.7997 24.5851 17.4801 25.3154 16.5063 25.7801C14.758 26.6211 14.8465 29.1218 16.6612 29.8521C17.2809 30.1177 17.6129 30.0956 19.2726 29.6751C22.4816 28.8563 25.2036 28.5243 28.7888 28.5243C35.5607 28.5243 41.9122 30.0292 47.1129 32.8619C49.0825 33.9241 49.5694 34.0127 50.4988 33.4594C51.5168 32.8619 51.8931 31.6004 51.3619 30.4497C51.0964 29.8964 48.9276 28.5243 46.7145 27.5506C39.8098 24.5187 30.9797 23.2351 23.4996 24.231Z" fill="#F2DAC4"/>
<path d="M26.5981 33.7692C24.6506 33.902 20.645 34.4774 18.8967 34.8536C16.6615 35.3405 15.8426 36.4692 16.7721 37.7749C17.3918 38.6822 17.945 38.7265 21.1097 38.1068C23.699 37.5978 24.6285 37.5314 28.9218 37.5093C33.2594 37.4872 34.0339 37.5535 36.0921 37.9962C38.9912 38.6601 40.9608 39.3461 43.6829 40.7182C44.8779 41.3157 46.0508 41.8026 46.2943 41.8026C47.0246 41.8026 47.8434 40.8289 47.8434 39.9436C47.8434 38.9478 47.1131 38.3281 44.214 36.9339C41.5583 35.6503 38.3715 34.6766 35.3396 34.2118C32.9717 33.8356 28.5898 33.6143 26.5981 33.7692Z" fill="#F2DAC4"/>
</svg>
